/* XPM */
static char * lastisland_xpm[] = {
"64 64 50 1",
" 	c #FDF6CD",
".	c #FDF8CC",
"+	c #FDF6D1",
"@	c #FEF4C5",
"#	c #F6F2CA",
"$	c #F8F5C7",
"%	c #FDF3B7",
"&	c #E7C796",
"*	c #F5D8A6",
"=	c #F6E2AB",
"-	c #FCE2B2",
";	c #F2CA8E",
">	c #F3C794",
",	c #EDCB93",
"'	c #EBD29C",
")	c #F5D9B7",
"!	c #FCEAC6",
"~	c #F2CD9A",
"{	c #ECCC9A",
"]	c #ECD5A4",
"^	c #FEF9D3",
"/	c #F1CB93",
"(	c #EBC88E",
"_	c #FCDBA5",
":	c #F4D29C",
"<	c #FDE1AD",
"[	c #FEDDAC",
"}	c #FDDDB2",
"|	c #F7E5B8",
"1	c #E7E2BB",
"2	c #FDD3BF",
"3	c #D7EAD5",
"4	c #EAE4BD",
"5	c #90C8B7",
"6	c #C7D6CE",
"7	c #E5E7C7",
"8	c #37ACC9",
"9	c #47B3CA",
"0	c #91D1CF",
"a	c #E4DCB7",
"b	c #F2ECC5",
"c	c #2AB4DB",
"d	c #35A9D7",
"e	c #359CAD",
"f	c #70B3B7",
"g	c #CDEACF",
"h	c #22ABDD",
"i	c #2BB6E6",
"j	c #51ADB8",
"k	c #BAE7DA",
"  .                                                             ",
"                              +                                 ",
"        +                                                  .    ",
"                                                                ",
"                                                  +.            ",
"                                         .                      ",
"                                                                ",
"                      +     .                                   ",
"       .              .                                         ",
"            .                           .                       ",
"                                        +                       ",
"                                                 .              ",
"             +                                                  ",
"                                                        .+      ",
"                                                                ",
"                                                                ",
"                                                                ",
"            .                 .                                 ",
"                   .          +                                 ",
"    .                                         +.                ",
"   +                                  .                         ",
"                                +        +                 .    ",
"                                                   .            ",
"                                                                ",
"                                                                ",
"                                                                ",
"                                                                ",
"+          .                              .                     ",
"   .                 .       .                             +    ",
"                                 .                              ",
"                                                .               ",
"             .                                             .    ",
"                   .+                +                          ",
"                                                                ",
"                                                                ",
"                                                                ",
" .                             .                    +   .       ",
"                           +                                    ",
"   .                       .                  .                 ",
"                    .                  .                        ",
"                .                             +                 ",
"        .                                                       ",
"        .                                                       ",
"       ..                                               .    .  ",
"       @.                                                    +  ",
"@# ..@ @$.@@  .$           .                                    ",
"%@@@ .@.@$.@  @.                                                ",
"&&*=-%% .....@. @       .             .+                        ",
";>,,,&')*!@.@.@@                                                ",
">;;,,~,~{,]-@..^                          .       .+            ",
"/(&,,/>//,,&'-..        @                                       ",
"_*:{,,>//;,,:&]%@@                                              ",
"<<[_*{,,;((;;:,{%@                                           .  ",
"<<<[[}[*~>,,(;,,,%@!@ @                                         ",
"_<_[}-}}__/&;;(,,]@@    $                                       ",
"-[[[[}}}}<*~,,,;;,}@. @                       .            .    ",
"-[<[}}_}[-[_/,,,,,&|@@                                          ",
"-}[[}}[[[}[[[{>(~,,] ..                                         ",
"1-}}}_2[}[}[[_/(~/,&=@. @                               .       ",
"34}}}}}}[[[[[[*//;/,{@@$                                        ",
"567))[[[[}}[[[[*{;/,&|@#                                        ",
"8903a=*<<<}<}_<[,,//,]@b                                        ",
"cdefg1*-<<<-<_<[:{~,,{=@                                        ",
"hid8jk1}[<[[<<<[[~,:,&]@.@                                      "};
