/* XPM */
static char * lastsea_xpm[] = {
"64 64 125 2",
"  	c #075B94",
". 	c #095B94",
"+ 	c #065D99",
"@ 	c #066196",
"# 	c #4D9CC2",
"$ 	c #5CB0CE",
"% 	c #5AACCB",
"& 	c #59AAC6",
"* 	c #095F99",
"= 	c #07619A",
"- 	c #06598E",
"; 	c #60B2C7",
"> 	c #5BAED1",
", 	c #156499",
"' 	c #065798",
") 	c #075691",
"! 	c #4EA1C5",
"~ 	c #5AABC9",
"{ 	c #358AB4",
"] 	c #0B6196",
"^ 	c #54A4C4",
"/ 	c #55ABD2",
"( 	c #53A6D1",
"_ 	c #54A5CA",
": 	c #61B5D3",
"< 	c #0B5A8D",
"[ 	c #085791",
"} 	c #5DB2D1",
"| 	c #055987",
"1 	c #60AED2",
"2 	c #1A6C9E",
"3 	c #095699",
"4 	c #60AFCD",
"5 	c #57B1CD",
"6 	c #3A97BC",
"7 	c #61B2CE",
"8 	c #4B9DCA",
"9 	c #59AAC9",
"0 	c #4DA3CB",
"a 	c #56AACB",
"b 	c #3C8DBA",
"c 	c #0A639C",
"d 	c #15699D",
"e 	c #1C72A5",
"f 	c #5DB9CE",
"g 	c #459AC3",
"h 	c #449CCA",
"i 	c #3584B2",
"j 	c #217BAD",
"k 	c #156296",
"l 	c #5AAED9",
"m 	c #4397C9",
"n 	c #46A1CB",
"o 	c #5FB8D5",
"p 	c #2C81AD",
"q 	c #2C7CAB",
"r 	c #55ADD9",
"s 	c #68B7D6",
"t 	c #4599BE",
"u 	c #2579A5",
"v 	c #73C6E1",
"w 	c #64BBDA",
"x 	c #6ABCD6",
"y 	c #0765A1",
"z 	c #76CCE9",
"A 	c #73C5DD",
"B 	c #73C5D9",
"C 	c #4495C2",
"D 	c #348CBA",
"E 	c #23729D",
"F 	c #6DC4E1",
"G 	c #75CAE2",
"H 	c #74C9DE",
"I 	c #6DC2DC",
"J 	c #07558E",
"K 	c #0A699A",
"L 	c #6DC1D6",
"M 	c #69BDE1",
"N 	c #3281A6",
"O 	c #4593BA",
"P 	c #79CCE3",
"Q 	c #6BBEDA",
"R 	c #58A7CA",
"S 	c #1D76AA",
"T 	c #2374A3",
"U 	c #57A9BF",
"V 	c #5BA7D8",
"W 	c #2B7EB1",
"X 	c #57A8C6",
"Y 	c #4EA9CD",
"Z 	c #156996",
"` 	c #58A7D1",
" .	c #63B9D5",
"..	c #2176AB",
"+.	c #2C84B2",
"@.	c #0D618E",
"#.	c #4FA0BE",
"$.	c #1166A1",
"%.	c #2A75A4",
"&.	c #13628D",
"*.	c #24759B",
"=.	c #62B6D9",
"-.	c #2E89AE",
";.	c #79CDE9",
">.	c #3383AD",
",.	c #3489AE",
"'.	c #1D719E",
").	c #60AED9",
"!.	c #5DB4D9",
"~.	c #70BFDD",
"{.	c #2E81A6",
"].	c #3D91B6",
"^.	c #56B1D3",
"/.	c #3D92BC",
"(.	c #2B7BA5",
"_.	c #5CB1C6",
":.	c #0C699E",
"<.	c #065087",
"[.	c #1571A5",
"}.	c #2A799E",
"|.	c #1B6DA1",
"1.	c #1B6EA8",
"2.	c #146CA2",
"3.	c #2B86B9",
"4.	c #5FB9DA",
"  .   + .     @ .     + .       @ +     +   # $ % & . * .   *     * +     . @   .       +   .           =       . +         @ . ",
"  +       @   +           @   .         + - # ; > % , .   ' + * ) +     +       +       .         +           @       . +       ",
".                 =           +   =   . + ) ! $ % ~ { ] ) ] + = )                   +     @ +     @ .   @     +     @ + .     . ",
"      . +     .         + .         . . + . ^ $ / $ ( ]     ) =   @ . =     + .   @       .       . +         .             +   ",
"    @               +           .       + . ! $ > % _ ] ) '   . ) + @       . +     @ .             + .     +   =   @       . + ",
"  @ + . @   + . =   .   @ .   +         + . ! % : % / < * *   .       . +         @     . +   +   ]                   . +       ",
"            +           . @   @ .         [ ! } > > _ | . *             .       .   +                 @ +   @   +       .       ",
". +     + .   .       +           + + . + . ! % 1 % _ 2 . 3         +   +     @ +     . @         +   .     .     . +   +     @ ",
"          =             +               ' . ! > > 4 5 6 . *   -   + .   @   =             = =       +       . @   . .   @   =   ",
"    +       @ .   +   .       . +     . + . ! % > % $ ( [ *     ]       +   .         .         +       @ .       +     +   .   ",
"    .       +         @       = @   +   + . _ % > 7 $ _         .   =   .           +       .                 +     =   .       ",
"+ @     .     . @     + .         .     ' . # } > % $ _ ] + @ - .             +   . @       +   @     . =                     + ",
"      + .     @                   +   '     8 } } 9 } 9 ! - +   )     + .     @ @           .     +   .   + .           =       ",
"  +           . @     * +     =           | 0 a % $ > % _ . +                 .       * +   +         @   @       =     .   +   ",
".     @     +     .   =         +     + @   0 } % % > $ !     + ]     @     +     .   =     @   . +   + .     .     +   . @   . ",
"      . +         +             .   .       b > } % } % ! <   - c     . +         +                           +               @ ",
"  +             .     .       ] @       + ) d ! % $ } & _ e     @           . @ +     .       .     +   . @       +     .       ",
"        =     =           +             '   | # } % % f ~ g     ) +     =                 +   =   @         @ .       +   + @ + ",
"@ . + .             + @ .   +       @   + +   a } a % $ $ (   @   ' + .             + @ .         . .   +           .       .   ",
"        @ .   + +                 + -       - 0 > } } % $ h - ) ] +     @ .   +   .             +   @         . =   @     +     ",
"  .     *     + @ .     . +         ] - + =   i > & > % % _ j -   .     *     +   =       .           .     . +         .     + ",
"                      @     . +   @ -   . ) ) k _ $ } % % l m . ] )                     @ +   . +     +             =           ",
"+   +       @         +               @   + ] ) 0 a % $ % } n - ] + +       @       *         = @       +     @         +     @ ",
"      . @     . +     .       =   + = ) )     @ ( o % % } % # - ) '   . @     . +                 .   . @       +     . @     . ",
"        .             =     +         - @   + . p % } % % > a q   )     .       .                 + +   +           +   +       ",
"  * @     +     +                       + ) c   < ( % % } % } g   + @     +   +     +   . @ . +       .       ]   =           @ ",
"    .       @ . *     @       @     - @ = )   ) . r % } s % $ t   * + .       @   @       + @     .     +               +     . ",
"+   +       +           . +             + + * . ] u % s v w x t   '       +   .   . +             + @   .     +     ]         + ",
")   | = - ) y   +   +   + + =   ' +     ) + +   - ] & z v A B _ | *     .     @   +   +     .                 =         =     . ",
"t t C D , - ) ) . - . )     ) + ] + - ]   + ) + + + E F F G H I b . )   ) c + J K ) . @       =   @   +   .           .       + ",
"$ $ } > g C 8 g # g q ] - .   [   .   ) ) = c ) .   k } A B L M M N   @   ' +   - +             +     @   @     + .   +     @   ",
"$ % a } > } } % } $ a g O 8 h q < < + + + ) @ - ] - , / v B P P Q $ { - . * + +   -     +         .   .   . +             + .   ",
"> % > : % % % R % % $ } : } > / # 8 S [ ] )       c 3 T F B v A A U V W - . '   c )   @       @     +     . + .   @ @     + +   ",
"% % % % % % > : : > % X $ $ R % } } _ Y ! e | * ' ' ' Z ` G P L H x % } i -     ) ]     +         +       +         .           ",
"$ $ 1 > } > > % R >  ._ % : $ % % % % & % a a 0 ..[ . * u Q s A A Q & } } +.@.  ) + +     @         +     @         . +   .     ",
"> > } 9 } % % % } % ` > } a % } % } % 1 % $ & $ #._ $.. [ %.v A v Q $ a } / p - + +                       .   =           @ *   ",
"% % % } % > % > % > % > % } % > $ % > $ % > > % } % a # &.*.=.v v B  .7 % % % -.J . * .   .       +     @ .   + .       @   + . ",
"} > > % } % } % } % } % > % > % % > % > } % % } % > } / / ! *.;.A A x % } } } a i   . * ) ) =     -                 . +         ",
"% } % > % > % > > % % } % } % } % > % > % > > % > % $ $ % } > 4 A v Q 9 % } & =.a >.] - c @   ) + c =     +     @       . +     ",
"> } > % } % $ > % } > % > % > % } % } % } % % } % } _ : R / : > A A B 7 % ` / % } $ p -   )   '     .         . +             = ",
"> % $ % > % } % > % % } } % > % % } % > % } % > > % $ $ > o _ % $ P B Q  .7 : % % $ V ,.] -   c ) +             @ . .     @   @ ",
"% } % > % } % > % } > % % > % } > % } % > % > % % } ~ $ a %  .$ } x P v A A w % % & } > '.-   ' + c   =     +       +       +   ",
"$ % } % } % } % } % % % > % > % / } % } % } $ % } % $ & > } a % % s v G H P s R > 4 & } p .   *   )     .   @     +       +     ",
"% > % > % > % > % > > $ % } % } $ % > % > % % > % > % } > % } _ $ : Q G B B Q 1 ).> $ % !.W .       . + +         . @   .       ",
"} } : R % $ } % > % > } } R $ % $ % % % % } } % > > % } % } % $ > % : ~.B B A Q 1 % > R : $ {.@.] '       @ )       .   @   + . ",
"].{ ` }  .> % % $ $ } % % } } > % > $ > } % % a > } > % > % % > % } R s P H ~.A Q : : 9 9 } ^.+.) . ]     c ]     +   +         ",
"-   D D D i g } $ & % % % } % > > } a % % > > } % % % } % > } % > % % : Q A B A v Q > % $ a o > +.] ) * + )   @ )       +       ",
"+ ) | J - J , >./.} : $ } % R } $ a } } } % % > > % > % > } % > % } } % : Q A B A A M : a % a } } >.  * 3         @           = ",
"+ ) @ @ c ) ' . ] i (.t o } & $ $ _.R % % } $ % % } % > % } % } > % % % %  .A A B A v s % $ $ % } ` i . - :.'   ] ) +     @     ",
"  = ) ) + + * * [   | d q i g } $ 5 } % 9 > $ } > % } % > % > % % > R } % $ A H A B A v L $ % : 9 > / i [ - . + +           @   ",
") ) ] .   )       = + ) ) | , q i 8 :  .} R % / } % } % % > % } % > R } } % : Q A B H Q v Q % % R > $ $ i <   + ) @     +       ",
"+ ] + +   @         + + + + ] + <.[.}.t } } % % $ % % > % $ > % } % : % > } R 4 ~.P B A v P Q } : % X $ / D ) ) c ) @           ",
"    .   +       + . .         + *   ) |.j u 0 w a } X } 9 } ` a } > & % % R } > $ L v ~.A B B ~.% > $ & } > i ] ) = + + ] ) + @ ",
"=     +         @   +   @     .     + ) ) - 2 '.(._ o a % }  .% % $ > } } > > > ` : ~.P H ~.H Q ~ : &  .% % / { - - )   ) c ) ) ",
".       *     .         =     =     + + )   . ) - 1.d p l > / % % $ > R > % % $ % } ~ x v A B P Q 4 } X % $ & a # i - . @   +   ",
"              +                     ) + + +   c )       |.d q } > > > > $ $ & $ % % : 7 Q v A A A x $ $ 7 $ % $ } % { -   + + + ",
"                +       +       +     + ) + ) + ) =   )     [ 2.Z d ] i / } % $ } / R } } : Q A B A % o > R  .$ a % / p - . ' ' ",
"@ +     +   @ .       @ .           @     ]     )   = )   = *   * ) * * , , d c , |.t > } 9 7 ~.P Q Q } % % R % } > > } i -     ",
"      = *   @               ]   .   )     )   @ c   @     ) 3   ]   3 ' = c + ) ] 3.a > > } 9 $ A v G Q  .} } % % % % $ > +.. ] ",
".               . +   +       + @   .   *     ) +   )   = @ ) ]   @ - . + )   . | . t } ` % } % 7 ~.A x 7 % } % > } $ & > > +.< ",
"    .   @ + .     .       +   .         =   .     .           + .       + @         /.` } $ & 7 9 =.I G I 9 > a : % % : % $ > i ",
"                +     @   .   +   +         @     + @   =       @       .       . + . ] b _ > } } % 7 x Q  .} > % a > % % $ % / ",
"  ]   + @       @           .       @       +         .             .       +         ] c < h _ g } % : L  ._ } } > } a % $ % 4.",
"+       .   +   .     =     @     + .   +         .   +         *   +   @   .   @         ) . < @.g _ t : : > % % $ > > $ % % / "};
