/* XPM */
static char * lastcoin_xpm[] = {
"64 64 7 1",
"  c #1A1A2E", /* Deep Blue Background */
". c #000000", /* Black Outline */
"X c #8B4513", /* Dark Shadow/Rim */
"x c #DAA520", /* Mid Gold Shadow */
"o c #FFD700", /* Vibrant Gold Body */
"O c #FFFACD", /* Light Gold Highlight */
"+ c #FFFFFF", /* Pure White Shine */
"                                                                ",
"                                                                ",
"                                                                ",
"                                                                ",
"                                                                ",
"                         ..............                         ",
"                      .....OOOOOOOOOO.....                      ",
"                    ...OOOOOOOOOOOOOOOOOO...                    ",
"                  ...OOOOOOOOOOOOOOOOOOOOOO...                  ",
"                ...OOOOOOOOOOOOOOOOOOOOOOOOOO...                ",
"               ..OOOOOOOOOOOOOOOOOOOOOOOOOOOOOO..               ",
"              .+OOOOOOOOOOOOOOOOOOOOOOOoooOOOOOO..              ",
"             ..O++OOOOOOOOOOOOOXOOOOOOooooooOOOOO..             ",
"            ..OO++OOOOOOOOOOOOOXOOOOOoooooooooOOOO..            ",
"           ..OOOOO+OOOOOOOOOOOOXOOOOoooooooooooOOOX..           ",
"          ..OOOOOOOOOOOOOOOOOOOXOOOoooooooooooooOXXX..          ",
"         ..OOOOOOOOOOOOOOOOOOOOXOOoooooooooooooooXXXX..         ",
"         .OOOOOOOOOOOOOOOOOOOOOXOoooooooooooooooooXXXX.         ",
"        ..OOOOOOOOOOOOOOXXXXXXXXXXXXXXXXXooooooooooXXX..        ",
"        .OOOOOOOOOOOOOOOXXXXXXXXXXXXXXXXXooooooooooXXXX.        ",
"       ..OOOOOOOOOOOOOOOXXXXXXXXXXXXXXXXXoooooooooooXXX..       ",
"       .OOOOOOOOOOOOOOOOXXXOOooXOoooooooooooooooooooXXXX.       ",
"      ..OOOOOOOOOOOOOOOOXXXOoooXOooooooooooooooooooooXXX..      ",
"      .OOOOOOOOOOOOOOOOOXXXooooXOooooooooooooooooooooXXXX.      ",
"      .OOOOOOOOOOOOOOOOOXXXooooXOooooooooooooooooooooxXXX.      ",
"     ..OOOOOOOOOOOOOOOOOXXXooooXOoooooooooooooooooooxxXXX..     ",
"     ..OOOOOOOOOOOOOOOOOXXXooooXOooooooooooooooooooxxxXXX..     ",
"     .OOOOOOOOOOOOOOOOOoXXXooooXOoooooooooooooooooxxxxxXXX.     ",
"     .OOOOOOOOOOOOOOOOooXXXooooXOooooooooooooooooxxxxxxXXX.     ",
"     .OOOOOOOOOOOOOOOoooXXXooooXOoooooooooooooooxxxxxxxXXX.     ",
"     .OOOOOOOOOOOOOOooooXXXXXXXXXXXXXXXXXooooooxxxxxxxxXXX.     ",
"     .OOOOOOOOOOOOOoooooXXXXXXXXXXXXXXXXXoooooxxxxxxxxxXXX.     ",
"     .OOOOOOOOOOOOooooooXXXXXXXXXXXXXXXXXooooxxxxxxxxxxXXX.     ",
"     .OOOOOOOOOOOooooooooooooooXOoooooXXXoooxxxxxxxxxxxXXX.     ",
"     .OOOOOOOOOOoooooooooooooooXOoooooXXXooxxxxxxxxxxxxXXX.     ",
"     .OOOOOOOOOooooooooooooooooXOoooooXXXoxxxxxxxxxxxxxXXX.     ",
"     .OOOOOOOOoooooooooooooooooXOoooooXXXxxxxxxxxxxxxxXXXX.     ",
"     ..OOOOOOooooooooooooooooooXOoooooXXXxxxxxxxxxxxxXXXX..     ",
"     ..OOOOOoooooooooooooooooooXOoooooXXXxxxxxxxxxxxXXXXX..     ",
"      .OOOOooooooooooooooooooooXOoooooXXXxxxxxxxxxxXXXXXX.      ",
"      .OOOOooooooooooooooooooooXOooooxXXXxxxxxxxxxXXXXXXX.      ",
"      ..OOOooooooooooooooooooooXOoooxxXXXxxxxxxxxXXXXXXX..      ",
"       .OOOOoooooooooooooooooooXOooxxxXXXxxxxxxxXXXXXXXX.       ",
"       ..OOOoooooooooooooooooooXOoxxxxXXXxxxxxxXXXXXXXX..       ",
"        .OOOOoooooooooooXXXXXXXXXXXXXXXXXxxxxxXXXXXXXXX.        ",
"        ..OOOoooooooooooXXXXXXXXXXXXXXXXXxxxxXXXXXXXXX..        ",
"         .OOOOooooooooooXXXXXXXXXXXXXXXXXxxxXXXXXXXXXX.         ",
"         ..OOOOoooooooooooooooxXOxxxxxxxxxxXXXXXXXXXX..         ",
"          ..OOOOoooooooooooooxxXOxxxxxxxxxXXXXXXXXXX..          ",
"           ..OOXXoooooooooooxxxXOxxxxxxxxXXXXXXXXXX..           ",
"            ..XXXXoooooooooxxxxXOxxxxxxxXXXXXXXXXX..            ",
"             ..XXXXXooooooxxxxxXOxxxxxxXXXXXXXXXX..             ",
"              ..XXXXXXoooxxxxxxxxxxxxxXXXXXXXXXX..              ",
"               ..XXXXXXXxxxxxxxxxxxxxXXXXXXXXXX..               ",
"                ...XXXXXXXXxxxxxxxxxXXXXXXXXX...                ",
"                  ...XXXXXXXXXXXXXXXXXXXXXX...                  ",
"                    ...XXXXXXXXXXXXXXXXXX...                    ",
"                      .....XXXXXXXXXX.....                      ",
"                         ..............                         ",
"                                                                ",
"                                                                ",
"                                                                ",
"                                                                ",
"                                                                "
};