/* XPM */
static char * lastisland_xpm[] = {
"64 64 8 1",
"a c #87CEEB", /* Sky */
"b c #4682B4", /* Horizon */
"c c #4169E1", /* Water */
"d c #F4A460", /* Sand Dark */
"e c #F0E68C", /* Sand Light */
"f c #228B22", /* Grass/Leaves */
"g c #8B4513", /* Trunk */
"h c #32CD32", /* Light Grass */
"aaaaaaaaaaaaaaaaaaaaaaaaaaaaaaaaaaaaaaaaaaaaaaaaaaaaaaaaaaaaaaaa",
"aaaaaaaaaaaaaaaaaaaaaaaaaaaaaaaaaaaaaaaaaaaaaaaaaaaaaaaaaaaaaaaa",
"aaaaaaaaaaaaaaaaaaaaaaaaaaaaaaaaaaaaaaaaaaaaaaaaaaaaaaaaaaaaaaaa",
"aaaaaaaaaaaaaaaaaaaaaaaaaaaaaaaaaaaaaaaaaaaaaaaaaaaaaaaaaaaaaaaa",
"aaaaaaaaaaaaaaaaaaaaaaaaaaaaaaaaaaaaaaaaaaaaaaaaaaaaaaaaaaaaaaaa",
"bbbbbbbbbbbbbbbbbbbbbbbbbbbbbbbbbbbbbbbbbbbbbbbbbbbbbbbbbbbbbbbb",
"cccccccccccccccccccccccccccccccccccccccccccccccccccccccccccccccc",
"cccccccccccccccccccccccccccccccccccccccccccccccccccccccccccccccc",
"cccccccccccccccccccccccccccccccccccccccccccccccccccccccccccccccc",
"cccccccccccccccccccccccccccccccccccccccccccccccccccccccccccccccc",
"cccccccccccccccccccccccccccccccccccccccccccccccccccccccccccccccc",
"cccccccccccccccccccccccccccccccccccccccccccccccccccccccccccccccc",
"cccccccccccccccccccccccccccccccccccccccccccccccccccccccccccccccc",
"cccccccccccccccccccccccccccccccccccccccccccccccccccccccccccccccc",
"cccccccccccccccccccccccccccccccccccccccccccccccccccccccccccccccc",
"cccccccccccccccccccccccccffffffffccccccccccccccccccccccccccccccc",
"cccccccccccccccccccccccccffffffffffccccccccccccccccccccccccccccc",
"cccccccccccccccccccccccccffffffffffccccccccccccccccccccccccccccc",
"ccccccccccccccccccccccccccffffffffcccccccccccccccccccccccccccccc",
"cccccccccccccccccccccccccccggggggccccccccccccccccccccccccccccccc",
"cccccccccccccccccccccccccccggggggccccccccccccccccccccccccccccccc",
"cccccccccccccccccccccccccccggggggccccccccccccccccccccccccccccccc",
"cccccccccccccccccccccccccccggggggccccccccccccccccccccccccccccccc",
"cccccccccccccccccccccccccccggggggccccccccccccccccccccccccccccccc",
"cccccccccccccccccccccccccccggggggccccccccccccccccccccccccccccccc",
"ccccccccccccccccccddddddddggggggddddddddcccccccccccccccccccccccc",
"ccccccccccccccddddddddddddggggggddddddddddddcccccccccccccccccccc",
"ccccccccccccddddddddddddddggggggddddddddddddddcccccccccccccccccc",
"ccccccccccddddddddddddddddggggggddddddddddddddddcccccccccccccccc",
"ccccccccdddddddddddddeeeeeehhhheeeeeedddddddddddddcccccccccccccc",
"ccccccddddddddddddddeeeeeeehhhheeeeeeeddddddddddddddcccccccccccc",
"cccccddddddddddddddeeeeeeehhhhhheeeeeeeddddddddddddddccccccccccc",
"ccccddddddddddddddeeeeeeehhhhhhhheeeeeeeddddddddddddddcccccccccc",
"cccddddddddddddddeeeeeeehhhhhhhhhheeeeeeeddddddddddddddccccccccc",
"cccddddddddddddddeeeeeeehhhhhhhhhheeeeeeeddddddddddddddccccccccc",
"ccdddddddddddddddeeeeeeehhhhhhhhhheeeeeeedddddddddddddddcccccccc",
"ccdddddddddddddddeeeeeeehhhhhhhhhheeeeeeedddddddddddddddcccccccc",
"ccdddddddddddddddeeeeeeehhhhhhhhhheeeeeeedddddddddddddddcccccccc",
"ccdddddddddddddddeeeeeeehhhhhhhhhheeeeeeedddddddddddddddcccccccc",
"ccdddddddddddddddeeeeeeehhhhhhhhhheeeeeeedddddddddddddddcccccccc",
"cccddddddddddddddeeeeeeehhhhhhhhhheeeeeeeddddddddddddddccccccccc",
"cccddddddddddddddeeeeeeehhhhhhhhhheeeeeeeddddddddddddddccccccccc",
"ccccddddddddddddddeeeeeeehhhhhhhheeeeeeeddddddddddddddcccccccccc",
"cccccddddddddddddddeeeeeeehhhhhheeeeeeeddddddddddddddccccccccccc",
"ccccccddddddddddddddeeeeeeehhhheeeeeeeddddddddddddddcccccccccccc",
"ccccccccdddddddddddddeeeeeeehheeeeeeddddddddddddddcccccccccccccc",
"ccccccccccdddddddddddddddeeeeeeeedddddddddddddddcccccccccccccccc",
"ccccccccccccddddddddddddddddddddddddddddddddddcccccccccccccccccc",
"ccccccccccccccddddddddddddddddddddddddddddddcccccccccccccccccccc",
"ccccccccccccccccccddddddddddddddddddddddcccccccccccccccccccccccc",
"ccccccccccccccccccccccccddddddddddcccccccccccccccccccccccccccccc",
"cccccccccccccccccccccccccccccccccccccccccccccccccccccccccccccccc",
"cccccccccccccccccccccccccccccccccccccccccccccccccccccccccccccccc",
"cccccccccccccccccccccccccccccccccccccccccccccccccccccccccccccccc",
"cccccccccccccccccccccccccccccccccccccccccccccccccccccccccccccccc",
"cccccccccccccccccccccccccccccccccccccccccccccccccccccccccccccccc",
"cccccccccccccccccccccccccccccccccccccccccccccccccccccccccccccccc",
"cccccccccccccccccccccccccccccccccccccccccccccccccccccccccccccccc",
"cccccccccccccccccccccccccccccccccccccccccccccccccccccccccccccccc",
"cccccccccccccccccccccccccccccccccccccccccccccccccccccccccccccccc",
"cccccccccccccccccccccccccccccccccccccccccccccccccccccccccccccccc",
"cccccccccccccccccccccccccccccccccccccccccccccccccccccccccccccccc",
"cccccccccccccccccccccccccccccccccccccccccccccccccccccccccccccccc",
"cccccccccccccccccccccccccccccccccccccccccccccccccccccccccccccccc"
};