/* XPM */
static char * Warrior_1_xpm[] = {
"64 64 23 1",
"a	c #020b1c",
"b	c #03142b",
"c	c #052343",
"d	c #07365c",
"e	c #0a4b75",
"f	c #0d6391",
"g	c #1181ae",
"i	c #3ad5ec",
"j	c #8df3ff",
"k	c #f4ffff",
"H	c #1b0f07",
"I	c #2b180c",
"J	c #3d230f",
"K	c #553114",
"N	c #b56a33",
"S	c #fff8f1",
"T	c #f1e0c8",
"U	c #d7c2a2",
"V	c #bca280",
"W	c #8c4a15",
"X	c #c23d32",
"Y	c #172036",
"Z	c #304367",
"ccdddddiijkkkkkkkkkkkkiibbbbbbfffffccccccccccccccbbbbbaaaaaaaaaa",
"cddddddiiiijiijiijiijiiibbbbbfffffcccccccccccccccbbbbbaaaaaaaaaa",
"cddddddiiikkkkkkkkkkiiibbbbbffffffccccccccccccccccbbbbaaaaaaaaaa",
"ddddddeiijiijiijiijiiibbbbbbfffffcccccccccccccccccbbbbbaaaaaaaaa",
"dddddeeiiiijikjiiiiiiccbbbbfffffcccccccddddcccccccbbbbbaaaaaaaaa",
"ddddeeeeiiiiiiiiiiiccccbbbfffffccccccdddddddccccccbbbbbaaaaaaaaa",
"ddddeeeeeiiiiiiidcccccccbffffffcccccdddddddddcccccbbbbbbaaaaaaab",
"dddeeeeeeeeddddddccccccccfffffcccccddddddddddcccccbbbbbbbaaaabbb",
"dddeeeeeeeedddddccccccccfffffcccccddddddddddddcccccbbbbbbbbbbbbb",
"dddeeeeeeeddddddcccccccfffffcccWWWddddddddddddcccccbbbbbbbbbbbbb",
"ddeeeeeeeeddddddccccccXXXXXXXccWWWddddddddddddcccccbbbbbbbbbbbbb",
"ddeeeeeeeedddddcccccccZZZZZZZccWWWdddddddddddddcccccbbbbbbbbbbbb",
"ddeeeeeeeddddddccccccfffffccccdWVVVVVVdddddddddcccccbbbbbbbbbbcc",
"ddeeeeeedddddddcccccfffffcccccdWVVVVVVeedddddddicccccbbbbbbbbccc",
"ddeeeeeeddddddcccccffffffccccddWSSTSUSeeediiiiiiiiiccbbbbbbccccc",
"ddeeeeeddddddccccccfffffcccccddWSSTSUSeeiiiiijiiiiiicccbcccccccc",
"ddeeeedddddddcccccfffffcccccdddWVVVVVVeiiiiikkkkiiiiiccccccccccc",
"ddeeedddddddcccccfffffccccccdddWVVVVVViijiijiijiijiiicccccccccdd",
"ddedddddddddccccffffffcccccddddWSSTSUSijkkkkkkkkkkiiiccccccccddd",
"dddddddddddcccccfffffccccccddddWSSTSUSjiijiijiijiijiicccccccdddd",
"ddddddddddcccccfffffcccccccddddWVVVVVVkkkkkkkkkkkkiiiccccccddddd",
"ddddddddddccccfffffccccccccddddWVVVVVVVjiijiijiijiiiicccccdddddd",
"dddddddddccccffffffbccccccdddddWSSTSUSSTkkkkkkkkkkjicccccdddddde",
"ddddddddcccccfffffbbccccccdddddWSSTSUSSTSiijiijiijiiccccddddddee",
"ddddddddccccfffffbbbccccccdddddWVVVVVVVVVVkkkkkkkiiicccddddddeee",
"dddddddccccfffffbbbbccccccdddddWVVVVVVVVVVVijiijiiicccddddddeeee",
"dddddddcccffffffbbbbccccccdddddWSSTSUSSTSUSSkkkkiiiccdddddddeeee",
"ddddddccccfffffbbbbbcccccddddddWSSTSUSSTSUSSTjiiiiccdddddddeeeee",
"ddddddcccfffffbbbbbbcccccdddddeWVVVVVVVVVVVVVViiiccdddddddeeeeee",
"dddddcccfffffbbbbbbbcccccdddddeWVVVVVVVVVVVVVVVicccdddddddeeeeee",
"dddddccffffffbbbbbbbcccccdddddeWSSTSUSSTSUSSTSUSccdddddddeeeeeef",
"dddddccfffffbbbbbbbcccccddddddeWSSTSUSSTSUSSTSUSScdddddddeeeeeff",
"dddddcfffffbbbbbbbbcccccddddddeWWWeiiiiiiiidddccccdddddddeeeeeff",
"dddddfffffbbbbbbbbccccccdddddeeWWWeedddddddddcccccddddddeeeeeeff",
"ddddffffffbbbbbbbbcccccddddddeeWWWeeddddddddccccccddddddeeeeefff",
"ddddfffffbbbHHHHHHHHHHHHHHHHHHHWWWHHHHHHHHHHHHHHHHHHHdddeeeeefff",
"dddfffffcbbbbHHHHHHHHHHHHHHHHHHHHHHHHHHHHHHHHHHHHHHHddddeeeeefff",
"ddfffffcccbbbbIIIIYIIIIZIIIIYIIIIZIIIIYIIIIZIIIIIIIddddeeeeeefff",
"dffffffcccbbbbbIIIIIIIIIIIIIIIIIIIIIIIIIIIIIIIIIIIdddddeeeeeefff",
"dfffffcccccbbcccJJJJJJJJJJJJJJJJJJJJJJJJJJJJJJJJJddddddeeeeeefff",
"fffffccccccccccccJJJJJJJJJJJJJJJJJJJJJJJJJJJJJJJcddddddeeeeeefff",
"ffffccccccccccccccKKKKKKKKKKKKKKKKKKKKKKKKKKKKKccddddddeeeeeefff",
"ffffdcccccccccccccdKKKKKKKNNNNNNNNNNNNNKKKKKKKcccdddddeeeeeeefff",
"fffddccccccccccccddddddeeeeeeeeeedddddddcccccccccdddddeeeeeeeeee",
"ffdddcccccccccccddddddeeeeeeeeeeedddddddcccccccccdddddeeeeeeeeei",
"fddddccccccccccddddddeeeeeeeeeeeeddddddcccccccccddddddeeeeeeeeii",
"fdddddcccccccddddddeeeeeeeeeeeeeeddddddcccccccccddddddeeeeeeeiii",
"eddddddcccccddddddeeeeeeeeeeeeeeeddddddccccccccddddddeeeeeeeeiii",
"eddddddddddddddddeeeeeeeeeeeeeeeeddddddccccccccddddddeeeeeeeiiik",
"edddddddddddddddeeeeeeeffffeeeeeeeddddddccccccdddddddeeeeeeeiiji",
"eddddddddddddddeeeeeefffffffeeeeeeddddddccccccddddddeeeeeeeeijkk",
"edddddddddddddeeeeeeffffffffeeeeeeddddddccccddddddddeeeeeeeeiiij",
"edddddddddddeeeeeefffffffffffeeeeedddddddddddddddddeeeeeeeeiiikk",
"edddiiiiiiiieeeeeffffffffffffeeeeedddddddddddddddddeeeeeeeeiijii",
"eiiiiiiiiiiiieeefffffffffffffeeeeeddddddddddddddddeeeeeeeeeiiikk",
"iiiiijiijiiiieefffffffffffffffeeeedddddddddddddddeeeeeeeeeeiiiji",
"ijkkkkkkkkjiiiffffffffffffffffeeeeedddddddddddddeeeeeeeeeeeeiiii",
"jiijiijiijiiiifffffgggggffffffeeeeeddddddddddddeeeeeeeeeeeeeiiii",
"kkkkkkkkkkkjiiffffgggggggfffffeeeeedddddddddddeeeeeeeeeeeeeeeiii",
"ijiijiijiijiiiffgggggggggffffffeeeeedddddddddeeeeeeeeeffeeeeeeee",
"kkkkkkkkkkkiiffgggggggggggfffffeeeeeddddddddeeeeeeeefffffeeeeeee",
"iijiijiijiijifggggggggggggfffffeeeeeedddddeeeeeeeeffffffffeeeeef",
"kkkkkkkkkkkiifggggggggggggfffffeeeeeeeeeeeeeeeeeefffffffffeeeeff",
"jiijiijiijiiigggggggggggggfffffeeeeeeeeeeeeeeeeeffffffffffeeefff"
};